<?xml version="1.0" encoding="UTF-8" standalone="no"?>
<!DOCTYPE svg PUBLIC "-//W3C//DTD SVG 1.1//EN"
 "http://www.w3.org/Graphics/SVG/1.1/DTD/svg11.dtd">
<!-- Generated by graphviz version 2.44.0 (0)
 -->
<!-- Title: snakemake_dag Pages: 1 -->
<svg width="543pt" height="404pt"
 viewBox="0.00 0.00 542.50 404.00" xmlns="http://www.w3.org/2000/svg" xmlns:xlink="http://www.w3.org/1999/xlink">
<g id="graph0" class="graph" transform="scale(1 1) rotate(0) translate(4 400)">
<title>snakemake_dag</title>
<polygon fill="white" stroke="transparent" points="-4,4 -4,-400 538.5,-400 538.5,4 -4,4"/>
<!-- 0 -->
<g id="node1" class="node">
<title>0</title>
<path fill="none" stroke="#d85656" stroke-width="2" d="M329.5,-36C329.5,-36 299.5,-36 299.5,-36 293.5,-36 287.5,-30 287.5,-24 287.5,-24 287.5,-12 287.5,-12 287.5,-6 293.5,0 299.5,0 299.5,0 329.5,0 329.5,0 335.5,0 341.5,-6 341.5,-12 341.5,-12 341.5,-24 341.5,-24 341.5,-30 335.5,-36 329.5,-36"/>
<text text-anchor="middle" x="314.5" y="-15.5" font-family="sans" font-size="10.00">all</text>
</g>
<!-- 1 -->
<g id="node2" class="node">
<title>1</title>
<path fill="none" stroke="#d89c56" stroke-width="2" d="M217.5,-180C217.5,-180 187.5,-180 187.5,-180 181.5,-180 175.5,-174 175.5,-168 175.5,-168 175.5,-156 175.5,-156 175.5,-150 181.5,-144 187.5,-144 187.5,-144 217.5,-144 217.5,-144 223.5,-144 229.5,-150 229.5,-156 229.5,-156 229.5,-168 229.5,-168 229.5,-174 223.5,-180 217.5,-180"/>
<text text-anchor="middle" x="202.5" y="-159.5" font-family="sans" font-size="10.00">bakta</text>
</g>
<!-- 1&#45;&gt;0 -->
<g id="edge1" class="edge">
<title>1&#45;&gt;0</title>
<path fill="none" stroke="grey" stroke-width="2" d="M208.29,-143.96C215.29,-125.02 228.42,-94.18 246.5,-72 255.71,-60.7 267.75,-50.33 279.14,-41.82"/>
<polygon fill="grey" stroke="grey" stroke-width="2" points="281.2,-44.65 287.26,-35.96 277.1,-38.97 281.2,-44.65"/>
</g>
<!-- 13 -->
<g id="node14" class="node">
<title>13</title>
<path fill="none" stroke="#56d8d0" stroke-width="2" d="M297.5,-108C297.5,-108 267.5,-108 267.5,-108 261.5,-108 255.5,-102 255.5,-96 255.5,-96 255.5,-84 255.5,-84 255.5,-78 261.5,-72 267.5,-72 267.5,-72 297.5,-72 297.5,-72 303.5,-72 309.5,-78 309.5,-84 309.5,-84 309.5,-96 309.5,-96 309.5,-102 303.5,-108 297.5,-108"/>
<text text-anchor="middle" x="282.5" y="-87.5" font-family="sans" font-size="10.00">multiqc</text>
</g>
<!-- 1&#45;&gt;13 -->
<g id="edge23" class="edge">
<title>1&#45;&gt;13</title>
<path fill="none" stroke="grey" stroke-width="2" d="M222.28,-143.7C232.25,-134.97 244.51,-124.24 255.36,-114.75"/>
<polygon fill="grey" stroke="grey" stroke-width="2" points="257.73,-117.32 262.95,-108.1 253.12,-112.06 257.73,-117.32"/>
</g>
<!-- 2 -->
<g id="node3" class="node">
<title>2</title>
<path fill="none" stroke="#569ad8" stroke-width="2" d="M217.5,-252C217.5,-252 187.5,-252 187.5,-252 181.5,-252 175.5,-246 175.5,-240 175.5,-240 175.5,-228 175.5,-228 175.5,-222 181.5,-216 187.5,-216 187.5,-216 217.5,-216 217.5,-216 223.5,-216 229.5,-222 229.5,-228 229.5,-228 229.5,-240 229.5,-240 229.5,-246 223.5,-252 217.5,-252"/>
<text text-anchor="middle" x="202.5" y="-231.5" font-family="sans" font-size="10.00">spades</text>
</g>
<!-- 2&#45;&gt;1 -->
<g id="edge7" class="edge">
<title>2&#45;&gt;1</title>
<path fill="none" stroke="grey" stroke-width="2" d="M202.5,-215.7C202.5,-207.98 202.5,-198.71 202.5,-190.11"/>
<polygon fill="grey" stroke="grey" stroke-width="2" points="206,-190.1 202.5,-180.1 199,-190.1 206,-190.1"/>
</g>
<!-- 9 -->
<g id="node10" class="node">
<title>9</title>
<path fill="none" stroke="#56d8a9" stroke-width="2" d="M367.5,-180C367.5,-180 337.5,-180 337.5,-180 331.5,-180 325.5,-174 325.5,-168 325.5,-168 325.5,-156 325.5,-156 325.5,-150 331.5,-144 337.5,-144 337.5,-144 367.5,-144 367.5,-144 373.5,-144 379.5,-150 379.5,-156 379.5,-156 379.5,-168 379.5,-168 379.5,-174 373.5,-180 367.5,-180"/>
<text text-anchor="middle" x="352.5" y="-159.5" font-family="sans" font-size="10.00">gtdbtk</text>
</g>
<!-- 2&#45;&gt;9 -->
<g id="edge16" class="edge">
<title>2&#45;&gt;9</title>
<path fill="none" stroke="grey" stroke-width="2" d="M229.7,-220.41C250.91,-210.58 281.34,-196.45 315.99,-180.23"/>
<polygon fill="grey" stroke="grey" stroke-width="2" points="317.81,-183.24 325.38,-175.83 314.84,-176.9 317.81,-183.24"/>
</g>
<!-- 11 -->
<g id="node12" class="node">
<title>11</title>
<path fill="none" stroke="#ced856" stroke-width="2" d="M439.5,-180C439.5,-180 409.5,-180 409.5,-180 403.5,-180 397.5,-174 397.5,-168 397.5,-168 397.5,-156 397.5,-156 397.5,-150 403.5,-144 409.5,-144 409.5,-144 439.5,-144 439.5,-144 445.5,-144 451.5,-150 451.5,-156 451.5,-156 451.5,-168 451.5,-168 451.5,-174 445.5,-180 439.5,-180"/>
<text text-anchor="middle" x="424.5" y="-159.5" font-family="sans" font-size="10.00">busco</text>
</g>
<!-- 2&#45;&gt;11 -->
<g id="edge19" class="edge">
<title>2&#45;&gt;11</title>
<path fill="none" stroke="grey" stroke-width="2" d="M229.74,-219.77C232.99,-218.4 236.29,-217.11 239.5,-216 300.97,-194.68 322.33,-201.92 387.7,-179.89"/>
<polygon fill="grey" stroke="grey" stroke-width="2" points="388.93,-183.17 397.23,-176.58 386.63,-176.56 388.93,-183.17"/>
</g>
<!-- 3 -->
<g id="node4" class="node">
<title>3</title>
<path fill="none" stroke="#68d856" stroke-width="2" d="M217.5,-324C217.5,-324 187.5,-324 187.5,-324 181.5,-324 175.5,-318 175.5,-312 175.5,-312 175.5,-300 175.5,-300 175.5,-294 181.5,-288 187.5,-288 187.5,-288 217.5,-288 217.5,-288 223.5,-288 229.5,-294 229.5,-300 229.5,-300 229.5,-312 229.5,-312 229.5,-318 223.5,-324 217.5,-324"/>
<text text-anchor="middle" x="202.5" y="-303.5" font-family="sans" font-size="10.00">fastp</text>
</g>
<!-- 3&#45;&gt;2 -->
<g id="edge8" class="edge">
<title>3&#45;&gt;2</title>
<path fill="none" stroke="grey" stroke-width="2" d="M202.5,-287.7C202.5,-279.98 202.5,-270.71 202.5,-262.11"/>
<polygon fill="grey" stroke="grey" stroke-width="2" points="206,-262.1 202.5,-252.1 199,-262.1 206,-262.1"/>
</g>
<!-- 6 -->
<g id="node7" class="node">
<title>6</title>
<path fill="none" stroke="#567bd8" stroke-width="2" d="M406,-252C406,-252 369,-252 369,-252 363,-252 357,-246 357,-240 357,-240 357,-228 357,-228 357,-222 363,-216 369,-216 369,-216 406,-216 406,-216 412,-216 418,-222 418,-228 418,-228 418,-240 418,-240 418,-246 412,-252 406,-252"/>
<text text-anchor="middle" x="387.5" y="-231.5" font-family="sans" font-size="10.00">unicycler</text>
</g>
<!-- 3&#45;&gt;6 -->
<g id="edge11" class="edge">
<title>3&#45;&gt;6</title>
<path fill="none" stroke="grey" stroke-width="2" d="M229.6,-295.73C257.16,-286.19 301.27,-270.57 347.37,-252.35"/>
<polygon fill="grey" stroke="grey" stroke-width="2" points="348.92,-255.5 356.92,-248.55 346.33,-248.99 348.92,-255.5"/>
</g>
<!-- 3&#45;&gt;13 -->
<g id="edge21" class="edge">
<title>3&#45;&gt;13</title>
<path fill="none" stroke="grey" stroke-width="2" d="M186.89,-287.77C179.13,-278.03 170.55,-265.18 166.5,-252 152.39,-206.12 140.55,-184.38 166.5,-144 183.8,-117.08 218.54,-103.66 245.52,-97.08"/>
<polygon fill="grey" stroke="grey" stroke-width="2" points="246.42,-100.47 255.42,-94.88 244.9,-93.63 246.42,-100.47"/>
</g>
<!-- 4 -->
<g id="node5" class="node">
<title>4</title>
<path fill="none" stroke="#d87556" stroke-width="2" d="M107,-252C107,-252 12,-252 12,-252 6,-252 0,-246 0,-240 0,-240 0,-228 0,-228 0,-222 6,-216 12,-216 12,-216 107,-216 107,-216 113,-216 119,-222 119,-228 119,-228 119,-240 119,-240 119,-246 113,-252 107,-252"/>
<text text-anchor="middle" x="59.5" y="-231.5" font-family="sans" font-size="10.00">amdfinder_download</text>
</g>
<!-- 4&#45;&gt;1 -->
<g id="edge5" class="edge">
<title>4&#45;&gt;1</title>
<path fill="none" stroke="grey" stroke-width="2" d="M94.48,-215.88C116.33,-205.18 144.4,-191.44 166.45,-180.65"/>
<polygon fill="grey" stroke="grey" stroke-width="2" points="168.05,-183.76 175.49,-176.22 164.97,-177.47 168.05,-183.76"/>
</g>
<!-- 5 -->
<g id="node6" class="node">
<title>5</title>
<path fill="none" stroke="#d8bc56" stroke-width="2" d="M96,-324C96,-324 23,-324 23,-324 17,-324 11,-318 11,-312 11,-312 11,-300 11,-300 11,-294 17,-288 23,-288 23,-288 96,-288 96,-288 102,-288 108,-294 108,-300 108,-300 108,-312 108,-312 108,-318 102,-324 96,-324"/>
<text text-anchor="middle" x="59.5" y="-303.5" font-family="sans" font-size="10.00">bakta_download</text>
</g>
<!-- 5&#45;&gt;4 -->
<g id="edge9" class="edge">
<title>5&#45;&gt;4</title>
<path fill="none" stroke="grey" stroke-width="2" d="M59.5,-287.7C59.5,-279.98 59.5,-270.71 59.5,-262.11"/>
<polygon fill="grey" stroke="grey" stroke-width="2" points="63,-262.1 59.5,-252.1 56,-262.1 63,-262.1"/>
</g>
<!-- 6&#45;&gt;1 -->
<g id="edge6" class="edge">
<title>6&#45;&gt;1</title>
<path fill="none" stroke="grey" stroke-width="2" d="M356.95,-219.37C354.11,-218.19 351.26,-217.05 348.5,-216 300.84,-197.79 286.98,-198.68 239.5,-180 239.4,-179.96 239.3,-179.92 239.2,-179.88"/>
<polygon fill="grey" stroke="grey" stroke-width="2" points="240.41,-176.59 229.83,-175.97 237.71,-183.05 240.41,-176.59"/>
</g>
<!-- 6&#45;&gt;9 -->
<g id="edge14" class="edge">
<title>6&#45;&gt;9</title>
<path fill="none" stroke="grey" stroke-width="2" d="M378.85,-215.7C374.86,-207.73 370.05,-198.1 365.63,-189.26"/>
<polygon fill="grey" stroke="grey" stroke-width="2" points="368.65,-187.48 361.05,-180.1 362.39,-190.61 368.65,-187.48"/>
</g>
<!-- 6&#45;&gt;11 -->
<g id="edge17" class="edge">
<title>6&#45;&gt;11</title>
<path fill="none" stroke="grey" stroke-width="2" d="M396.65,-215.7C400.9,-207.64 406.06,-197.89 410.77,-188.98"/>
<polygon fill="grey" stroke="grey" stroke-width="2" points="413.88,-190.58 415.46,-180.1 407.69,-187.31 413.88,-190.58"/>
</g>
<!-- 7 -->
<g id="node8" class="node">
<title>7</title>
<path fill="none" stroke="#88d856" stroke-width="2" d="M402.5,-396C402.5,-396 370.5,-396 370.5,-396 364.5,-396 358.5,-390 358.5,-384 358.5,-384 358.5,-372 358.5,-372 358.5,-366 364.5,-360 370.5,-360 370.5,-360 402.5,-360 402.5,-360 408.5,-360 414.5,-366 414.5,-372 414.5,-372 414.5,-384 414.5,-384 414.5,-390 408.5,-396 402.5,-396"/>
<text text-anchor="middle" x="386.5" y="-375.5" font-family="sans" font-size="10.00">chopper</text>
</g>
<!-- 7&#45;&gt;6 -->
<g id="edge12" class="edge">
<title>7&#45;&gt;6</title>
<path fill="none" stroke="grey" stroke-width="2" d="M383.25,-359.89C381.45,-349.54 379.41,-336.06 378.5,-324 377.3,-308.04 377.16,-303.94 378.5,-288 379.22,-279.5 380.57,-270.31 382.01,-262.01"/>
<polygon fill="grey" stroke="grey" stroke-width="2" points="385.47,-262.56 383.85,-252.09 378.59,-261.29 385.47,-262.56"/>
</g>
<!-- 8 -->
<g id="node9" class="node">
<title>8</title>
<path fill="none" stroke="#56d86b" stroke-width="2" d="M429.5,-324C429.5,-324 399.5,-324 399.5,-324 393.5,-324 387.5,-318 387.5,-312 387.5,-312 387.5,-300 387.5,-300 387.5,-294 393.5,-288 399.5,-288 399.5,-288 429.5,-288 429.5,-288 435.5,-288 441.5,-294 441.5,-300 441.5,-300 441.5,-312 441.5,-312 441.5,-318 435.5,-324 429.5,-324"/>
<text text-anchor="middle" x="414.5" y="-303.5" font-family="sans" font-size="10.00">flye</text>
</g>
<!-- 7&#45;&gt;8 -->
<g id="edge13" class="edge">
<title>7&#45;&gt;8</title>
<path fill="none" stroke="grey" stroke-width="2" d="M393.42,-359.7C396.57,-351.81 400.38,-342.3 403.88,-333.55"/>
<polygon fill="grey" stroke="grey" stroke-width="2" points="407.19,-334.69 407.66,-324.1 400.69,-332.09 407.19,-334.69"/>
</g>
<!-- 8&#45;&gt;6 -->
<g id="edge10" class="edge">
<title>8&#45;&gt;6</title>
<path fill="none" stroke="grey" stroke-width="2" d="M407.83,-287.7C404.79,-279.81 401.12,-270.3 397.74,-261.55"/>
<polygon fill="grey" stroke="grey" stroke-width="2" points="400.96,-260.17 394.1,-252.1 394.43,-262.69 400.96,-260.17"/>
</g>
<!-- 9&#45;&gt;0 -->
<g id="edge2" class="edge">
<title>9&#45;&gt;0</title>
<path fill="none" stroke="grey" stroke-width="2" d="M347.92,-143.87C341.41,-119.56 329.44,-74.82 321.73,-46.01"/>
<polygon fill="grey" stroke="grey" stroke-width="2" points="325.07,-44.94 319.1,-36.19 318.3,-46.75 325.07,-44.94"/>
</g>
<!-- 9&#45;&gt;13 -->
<g id="edge20" class="edge">
<title>9&#45;&gt;13</title>
<path fill="none" stroke="grey" stroke-width="2" d="M335.2,-143.7C326.64,-135.14 316.16,-124.66 306.8,-115.3"/>
<polygon fill="grey" stroke="grey" stroke-width="2" points="309.15,-112.7 299.6,-108.1 304.2,-117.65 309.15,-112.7"/>
</g>
<!-- 10 -->
<g id="node11" class="node">
<title>10</title>
<path fill="none" stroke="#56d88a" stroke-width="2" d="M327,-252C327,-252 260,-252 260,-252 254,-252 248,-246 248,-240 248,-240 248,-228 248,-228 248,-222 254,-216 260,-216 260,-216 327,-216 327,-216 333,-216 339,-222 339,-228 339,-228 339,-240 339,-240 339,-246 333,-252 327,-252"/>
<text text-anchor="middle" x="293.5" y="-231.5" font-family="sans" font-size="10.00">gtdb_download</text>
</g>
<!-- 10&#45;&gt;9 -->
<g id="edge15" class="edge">
<title>10&#45;&gt;9</title>
<path fill="none" stroke="grey" stroke-width="2" d="M308.08,-215.7C315.16,-207.3 323.78,-197.07 331.55,-187.86"/>
<polygon fill="grey" stroke="grey" stroke-width="2" points="334.31,-190.01 338.08,-180.1 328.96,-185.49 334.31,-190.01"/>
</g>
<!-- 11&#45;&gt;0 -->
<g id="edge3" class="edge">
<title>11&#45;&gt;0</title>
<path fill="none" stroke="grey" stroke-width="2" d="M411.23,-143.87C391.99,-119.03 356.21,-72.85 333.98,-44.14"/>
<polygon fill="grey" stroke="grey" stroke-width="2" points="336.71,-41.95 327.82,-36.19 331.17,-46.24 336.71,-41.95"/>
</g>
<!-- 11&#45;&gt;13 -->
<g id="edge24" class="edge">
<title>11&#45;&gt;13</title>
<path fill="none" stroke="grey" stroke-width="2" d="M397.46,-147.67C375.19,-136.69 343.43,-121.03 318.93,-108.96"/>
<polygon fill="grey" stroke="grey" stroke-width="2" points="320.44,-105.8 309.93,-104.52 317.35,-112.08 320.44,-105.8"/>
</g>
<!-- 12 -->
<g id="node13" class="node">
<title>12</title>
<path fill="none" stroke="#afd856" stroke-width="2" d="M522.5,-252C522.5,-252 448.5,-252 448.5,-252 442.5,-252 436.5,-246 436.5,-240 436.5,-240 436.5,-228 436.5,-228 436.5,-222 442.5,-216 448.5,-216 448.5,-216 522.5,-216 522.5,-216 528.5,-216 534.5,-222 534.5,-228 534.5,-228 534.5,-240 534.5,-240 534.5,-246 528.5,-252 522.5,-252"/>
<text text-anchor="middle" x="485.5" y="-231.5" font-family="sans" font-size="10.00">busco_download</text>
</g>
<!-- 12&#45;&gt;11 -->
<g id="edge18" class="edge">
<title>12&#45;&gt;11</title>
<path fill="none" stroke="grey" stroke-width="2" d="M470.42,-215.7C463.11,-207.3 454.19,-197.07 446.16,-187.86"/>
<polygon fill="grey" stroke="grey" stroke-width="2" points="448.61,-185.34 439.41,-180.1 443.34,-189.94 448.61,-185.34"/>
</g>
<!-- 13&#45;&gt;0 -->
<g id="edge4" class="edge">
<title>13&#45;&gt;0</title>
<path fill="none" stroke="grey" stroke-width="2" d="M290.41,-71.7C294.05,-63.73 298.45,-54.1 302.49,-45.26"/>
<polygon fill="grey" stroke="grey" stroke-width="2" points="305.71,-46.65 306.68,-36.1 299.34,-43.74 305.71,-46.65"/>
</g>
<!-- 14 -->
<g id="node15" class="node">
<title>14</title>
<path fill="none" stroke="#56c1d8" stroke-width="2" d="M295,-180C295,-180 260,-180 260,-180 254,-180 248,-174 248,-168 248,-168 248,-156 248,-156 248,-150 254,-144 260,-144 260,-144 295,-144 295,-144 301,-144 307,-150 307,-156 307,-156 307,-168 307,-168 307,-174 301,-180 295,-180"/>
<text text-anchor="middle" x="277.5" y="-159.5" font-family="sans" font-size="10.00">nanostat</text>
</g>
<!-- 14&#45;&gt;13 -->
<g id="edge22" class="edge">
<title>14&#45;&gt;13</title>
<path fill="none" stroke="grey" stroke-width="2" d="M278.74,-143.7C279.29,-135.98 279.95,-126.71 280.56,-118.11"/>
<polygon fill="grey" stroke="grey" stroke-width="2" points="284.06,-118.33 281.28,-108.1 277.07,-117.83 284.06,-118.33"/>
</g>
</g>
</svg>
